<svg  xmlns="http://www.w3.org/2000/svg" xmlns:xlink="http://www.w3.org/1999/xlink" x="0px" y="0px"
	 viewBox="0 0 495.44 145.87" style="enable-background:new 0 0 495.44 145.87;" xml:space="preserve">
<g>
	<path d="M99.47,3.41c14.84,0,26,2.35,33.47,7.04c7.47,4.69,11.21,11.84,11.21,21.45c0,9.5-3.8,16.57-11.39,21.2
		c-7.59,4.63-18.69,6.95-33.3,6.95H44.69c-14.61,0-25.71-2.32-33.3-6.95C3.79,48.47,0,41.4,0,31.9c0-9.61,3.74-16.76,11.21-21.45
		c7.47-4.69,18.63-7.04,33.47-7.04H99.47z M38.56,114.13V89.4H1.36V71.31h142.28V89.4h-31.22v24.74H91.96V89.4H59.03v24.74H38.56z
		 M22.18,121.64c0,1.82,0.34,3.16,1.02,4.01s1.82,1.28,3.41,1.28h116.86v18.08H21.67c-6.6,0-11.58-1.52-14.94-4.56
		c-3.36-3.04-5.03-7.55-5.03-13.52l0.17-30.88h20.3V121.64z M20.47,31.82c0,3.39,2.01,5.92,6.03,7.61
		c4.02,1.69,10.04,2.54,18.08,2.54h55c8.03,0,14.06-0.85,18.08-2.54c4.02-1.69,6.03-4.23,6.03-7.61c0-3.61-1.95-6.23-5.86-7.87
		c-3.91-1.64-9.82-2.46-17.74-2.46H44.07c-7.92,0-13.84,0.82-17.74,2.46C22.42,25.59,20.47,28.21,20.47,31.82z"/>
	<path d="M259.83,93.49c0,14.45-4.04,25.93-12.12,34.46c-8.08,8.53-19.28,12.8-33.61,12.8s-25.3-4.29-32.92-12.88
		c-7.62-8.59-11.43-20.05-11.43-34.38V51.01c0-14.33,3.81-25.79,11.43-34.38c7.62-8.59,18.6-12.88,32.92-12.88
		s25.53,4.29,33.61,12.88c8.08,8.59,12.12,20.05,12.12,34.38V93.49z M239.36,49.3c0-8.19-2.24-14.81-6.73-19.88
		c-4.49-5.06-10.66-7.59-18.51-7.59c-7.85,0-13.8,2.64-17.84,7.93c-4.04,5.29-6.06,11.8-6.06,19.53V95.2
		c0,7.62,2.02,14.1,6.06,19.45c4.04,5.35,9.99,8.02,17.84,8.02c7.85,0,14.02-2.59,18.51-7.76c4.49-5.17,6.73-11.74,6.73-19.71V49.3z
		 M319.54,145.87h-20.47V105.6h-33.1V87.52h33.1V48.28h-33.1V30.2h33.1V0h20.47V145.87z"/>
	<path d="M345.48,58.86c14.9-2.5,26.07-8.5,33.52-18c7.45-9.5,11.74-22.66,12.88-39.5h21.16c1.14,16.83,5.43,30,12.88,39.5
		c7.45,9.5,18.62,15.5,33.52,18v18.08c-12.74-1.02-24.23-4.55-34.46-10.58c-10.24-6.03-17.74-13.31-22.52-21.84
		c-4.78,8.53-12.28,15.81-22.52,21.84c-10.24,6.03-21.73,9.55-34.46,10.58V58.86z M495.44,142.63H372.09
		c-6.88,0-12.04-1.51-15.48-4.52c-3.44-3.01-5.16-7.54-5.16-13.56V83.43h20.47v33.78c-0.11,2.73,0.34,4.64,1.37,5.72
		c1.02,1.08,2.79,1.62,5.29,1.62h116.87V142.63z M494.07,87.69h-20.64l-0.17-47.09h-28.32V22.52h28.32l0.17-22.18h20.64V87.69z"/>
</g>
</svg>
